G04 #@! TF.FileFunction,Soldermask,Top*
%FSLAX46Y46*%
G04 Gerber Fmt 4.6, Leading zero omitted, Abs format (unit mm)*
G04 Created by KiCad (PCBNEW 4.0.5) date 03/21/17 19:18:11*
%MOMM*%
%LPD*%
G01*
G04 APERTURE LIST*
%ADD10C,0.100000*%
%ADD11R,1.700000X1.700000*%
%ADD12O,1.700000X1.700000*%
%ADD13R,0.550000X1.500000*%
%ADD14R,1.500000X0.550000*%
%ADD15C,1.727200*%
%ADD16R,0.900000X1.200000*%
%ADD17O,3.048000X1.727200*%
%ADD18R,1.200000X0.750000*%
%ADD19R,0.750000X1.200000*%
%ADD20R,0.800000X0.600000*%
%ADD21R,1.700000X1.200000*%
%ADD22O,1.700000X1.200000*%
%ADD23R,1.300000X1.500000*%
%ADD24R,0.400000X1.350000*%
%ADD25O,1.250000X0.950000*%
%ADD26O,1.000000X1.550000*%
%ADD27R,2.000000X0.650000*%
%ADD28R,1.524000X1.524000*%
%ADD29C,1.524000*%
%ADD30R,0.400000X0.650000*%
%ADD31R,2.000000X4.500000*%
%ADD32R,1.397000X1.397000*%
%ADD33C,1.397000*%
G04 APERTURE END LIST*
D10*
D11*
X84074000Y-144526000D03*
D12*
X81534000Y-144526000D03*
X84074000Y-147066000D03*
X81534000Y-147066000D03*
X84074000Y-149606000D03*
X81534000Y-149606000D03*
D13*
X94170000Y-157368000D03*
X93370000Y-157368000D03*
X92570000Y-157368000D03*
X91770000Y-157368000D03*
X90970000Y-157368000D03*
X90170000Y-157368000D03*
X89370000Y-157368000D03*
X88570000Y-157368000D03*
X87770000Y-157368000D03*
X86970000Y-157368000D03*
X86170000Y-157368000D03*
D14*
X84470000Y-159068000D03*
X84470000Y-159868000D03*
X84470000Y-160668000D03*
X84470000Y-161468000D03*
X84470000Y-162268000D03*
X84470000Y-163068000D03*
X84470000Y-163868000D03*
X84470000Y-164668000D03*
X84470000Y-165468000D03*
X84470000Y-166268000D03*
X84470000Y-167068000D03*
D13*
X86170000Y-168768000D03*
X86970000Y-168768000D03*
X87770000Y-168768000D03*
X88570000Y-168768000D03*
X89370000Y-168768000D03*
X90170000Y-168768000D03*
X90970000Y-168768000D03*
X91770000Y-168768000D03*
X92570000Y-168768000D03*
X93370000Y-168768000D03*
X94170000Y-168768000D03*
D14*
X95870000Y-167068000D03*
X95870000Y-166268000D03*
X95870000Y-165468000D03*
X95870000Y-164668000D03*
X95870000Y-163868000D03*
X95870000Y-163068000D03*
X95870000Y-162268000D03*
X95870000Y-161468000D03*
X95870000Y-160668000D03*
X95870000Y-159868000D03*
X95870000Y-159068000D03*
D15*
X123675206Y-170883104D02*
X124609152Y-171817050D01*
X120083104Y-174475206D02*
X121017050Y-175409152D01*
X114694950Y-161902848D02*
X115628896Y-162836794D01*
X111102848Y-165494950D02*
X112036794Y-166428896D01*
X129481104Y-172488794D02*
X130415050Y-171554848D01*
X133073206Y-176080896D02*
X134007152Y-175146950D01*
X120500848Y-181469050D02*
X121434794Y-180535104D01*
X124092950Y-185061152D02*
X125026896Y-184127206D01*
D16*
X92964000Y-150538000D03*
X92964000Y-152738000D03*
D15*
X130832794Y-166428896D02*
X129898848Y-165494950D01*
X134424896Y-162836794D02*
X133490950Y-161902848D01*
X139813050Y-175409152D02*
X138879104Y-174475206D01*
X143405152Y-171817050D02*
X142471206Y-170883104D01*
X125026896Y-164823206D02*
X124092950Y-165757152D01*
X121434794Y-161231104D02*
X120500848Y-162165050D01*
X134007152Y-155842950D02*
X133073206Y-156776896D01*
X130415050Y-152250848D02*
X129481104Y-153184794D01*
D17*
X94234000Y-184150000D03*
X94234000Y-179070000D03*
X106934000Y-184150000D03*
X106934000Y-179070000D03*
X74168000Y-184150000D03*
X74168000Y-179070000D03*
X86868000Y-184150000D03*
X86868000Y-179070000D03*
D18*
X111953000Y-158496000D03*
X113853000Y-158496000D03*
D19*
X81534000Y-166812000D03*
X81534000Y-164912000D03*
X81534000Y-161102000D03*
X81534000Y-163002000D03*
X89154000Y-150688000D03*
X89154000Y-152588000D03*
X98552000Y-162748000D03*
X98552000Y-160848000D03*
X98806000Y-165928000D03*
X98806000Y-167828000D03*
D20*
X99060000Y-144360000D03*
X99060000Y-142660000D03*
X101092000Y-142660000D03*
X101092000Y-144360000D03*
X90678000Y-184238000D03*
X90678000Y-182538000D03*
D21*
X113284000Y-152146000D03*
D22*
X113284000Y-154146000D03*
D23*
X100584000Y-161878000D03*
X100584000Y-159178000D03*
D24*
X92740000Y-143082000D03*
X92090000Y-143082000D03*
X91440000Y-143082000D03*
X90790000Y-143082000D03*
X90140000Y-143082000D03*
D25*
X93940000Y-143082000D03*
X88940000Y-143082000D03*
D26*
X94940000Y-140382000D03*
X87940000Y-140382000D03*
D16*
X99060000Y-148801000D03*
X99060000Y-146601000D03*
X101092000Y-146728000D03*
X101092000Y-148928000D03*
X102870000Y-156888000D03*
X102870000Y-159088000D03*
X90932000Y-150538000D03*
X90932000Y-152738000D03*
X90678000Y-180424000D03*
X90678000Y-178224000D03*
D27*
X105478000Y-157038000D03*
X105478000Y-157988000D03*
X105478000Y-158938000D03*
X108898000Y-158938000D03*
X108898000Y-157038000D03*
D28*
X67056000Y-146812000D03*
D29*
X64516000Y-146812000D03*
X67056000Y-149352000D03*
X64516000Y-149352000D03*
X67056000Y-151892000D03*
X64516000Y-151892000D03*
X67056000Y-154432000D03*
X64516000Y-154432000D03*
D30*
X87391000Y-152339000D03*
X86091000Y-152339000D03*
X86741000Y-154239000D03*
X86741000Y-152339000D03*
X86091000Y-154239000D03*
X87391000Y-154239000D03*
D31*
X76962000Y-158945000D03*
X76962000Y-167445000D03*
D29*
X50800000Y-181610000D03*
X53340000Y-181610000D03*
X55880000Y-181610000D03*
X58420000Y-181610000D03*
X60960000Y-181610000D03*
X87630000Y-147320000D03*
X90170000Y-147320000D03*
X92710000Y-147320000D03*
X95250000Y-147320000D03*
D32*
X116673000Y-139827000D03*
D33*
X114173000Y-139827000D03*
X111673000Y-139827000D03*
M02*
