G04 #@! TF.FileFunction,Legend,Bot*
%FSLAX46Y46*%
G04 Gerber Fmt 4.6, Leading zero omitted, Abs format (unit mm)*
G04 Created by KiCad (PCBNEW 4.0.5) date 03/21/17 19:18:11*
%MOMM*%
%LPD*%
G01*
G04 APERTURE LIST*
%ADD10C,0.100000*%
%ADD11C,0.120000*%
%ADD12C,0.150000*%
G04 APERTURE END LIST*
D10*
D11*
X99218000Y-154651000D02*
X99918000Y-154651000D01*
X99918000Y-153451000D02*
X99218000Y-153451000D01*
X119634000Y-152646000D02*
X115284000Y-152646000D01*
X115284000Y-152646000D02*
X115284000Y-153646000D01*
X115284000Y-153646000D02*
X119634000Y-153646000D01*
X113434000Y-151346000D02*
X113434000Y-150996000D01*
X113434000Y-150996000D02*
X111834000Y-150996000D01*
X111834000Y-150996000D02*
X111834000Y-150096000D01*
X111834000Y-150096000D02*
X119634000Y-150096000D01*
X119634000Y-150096000D02*
X119634000Y-156196000D01*
X119634000Y-156196000D02*
X111834000Y-156196000D01*
X111834000Y-156196000D02*
X111834000Y-155296000D01*
X111834000Y-155296000D02*
X113434000Y-155296000D01*
X113434000Y-155296000D02*
X113434000Y-154946000D01*
X113434000Y-150096000D02*
X113434000Y-150996000D01*
X113434000Y-156196000D02*
X113434000Y-155296000D01*
X115784000Y-150846000D02*
X117384000Y-150846000D01*
X117384000Y-150846000D02*
X117384000Y-151846000D01*
X117384000Y-151846000D02*
X115784000Y-151846000D01*
X115784000Y-151846000D02*
X115784000Y-150846000D01*
X115784000Y-155446000D02*
X117384000Y-155446000D01*
X117384000Y-155446000D02*
X117384000Y-154446000D01*
X117384000Y-154446000D02*
X115784000Y-154446000D01*
X115784000Y-154446000D02*
X115784000Y-155446000D01*
X117384000Y-151846000D02*
X119634000Y-151846000D01*
X117384000Y-151346000D02*
X119634000Y-151346000D01*
X113434000Y-151346000D02*
X112234000Y-151346000D01*
X100576000Y-147656000D02*
X99576000Y-147656000D01*
X99576000Y-149016000D02*
X100576000Y-149016000D01*
X107942000Y-153498000D02*
X106942000Y-153498000D01*
X106942000Y-154858000D02*
X107942000Y-154858000D01*
X72054000Y-164330000D02*
X72054000Y-163330000D01*
X70694000Y-163330000D02*
X70694000Y-164330000D01*
X90252000Y-172855000D02*
X90252000Y-173855000D01*
X91612000Y-173855000D02*
X91612000Y-172855000D01*
X92284000Y-172855000D02*
X92284000Y-173855000D01*
X93644000Y-173855000D02*
X93644000Y-172855000D01*
X96348000Y-172855000D02*
X96348000Y-173855000D01*
X97708000Y-173855000D02*
X97708000Y-172855000D01*
X94316000Y-172855000D02*
X94316000Y-173855000D01*
X95676000Y-173855000D02*
X95676000Y-172855000D01*
X88220000Y-172855000D02*
X88220000Y-173855000D01*
X89580000Y-173855000D02*
X89580000Y-172855000D01*
X86188000Y-172855000D02*
X86188000Y-173855000D01*
X87548000Y-173855000D02*
X87548000Y-172855000D01*
X84156000Y-172855000D02*
X84156000Y-173855000D01*
X85516000Y-173855000D02*
X85516000Y-172855000D01*
X105746000Y-146312000D02*
X105746000Y-147312000D01*
X107106000Y-147312000D02*
X107106000Y-146312000D01*
X107778000Y-146312000D02*
X107778000Y-147312000D01*
X109138000Y-147312000D02*
X109138000Y-146312000D01*
X69256000Y-163780000D02*
X69256000Y-163880000D01*
X64856000Y-162280000D02*
X69256000Y-162280000D01*
X69256000Y-165380000D02*
X64856000Y-165380000D01*
X64856000Y-163780000D02*
X64856000Y-163880000D01*
X100976000Y-152740000D02*
X99176000Y-152740000D01*
X99176000Y-149520000D02*
X101626000Y-149520000D01*
D12*
X105767000Y-152805000D02*
X105767000Y-152630000D01*
X109117000Y-152805000D02*
X109117000Y-152555000D01*
X109117000Y-149455000D02*
X109117000Y-149705000D01*
X105767000Y-149455000D02*
X105767000Y-149705000D01*
X105767000Y-152805000D02*
X109117000Y-152805000D01*
X105767000Y-149455000D02*
X109117000Y-149455000D01*
X105767000Y-152630000D02*
X104517000Y-152630000D01*
D11*
X68326000Y-145288000D02*
X62992000Y-145288000D01*
X62992000Y-145288000D02*
X62992000Y-155956000D01*
X62992000Y-155956000D02*
X68326000Y-155956000D01*
X68326000Y-155956000D02*
X68326000Y-155956000D01*
X65786000Y-145796000D02*
X65786000Y-148082000D01*
X65786000Y-148082000D02*
X68072000Y-148082000D01*
X68072000Y-148082000D02*
X68072000Y-148082000D01*
X68656000Y-144712000D02*
X39456000Y-144712000D01*
X39456000Y-144712000D02*
X39456000Y-160162000D01*
X39456000Y-160162000D02*
X68656000Y-160162000D01*
X68656000Y-160162000D02*
X68656000Y-144712000D01*
X68656000Y-144712000D02*
X68656000Y-144712000D01*
X68326000Y-155956000D02*
X68326000Y-145288000D01*
X68326000Y-145288000D02*
X68326000Y-145288000D01*
D12*
X99734666Y-155932143D02*
X99782285Y-155979762D01*
X99925142Y-156027381D01*
X100020380Y-156027381D01*
X100163238Y-155979762D01*
X100258476Y-155884524D01*
X100306095Y-155789286D01*
X100353714Y-155598810D01*
X100353714Y-155455952D01*
X100306095Y-155265476D01*
X100258476Y-155170238D01*
X100163238Y-155075000D01*
X100020380Y-155027381D01*
X99925142Y-155027381D01*
X99782285Y-155075000D01*
X99734666Y-155122619D01*
X98782285Y-156027381D02*
X99353714Y-156027381D01*
X99068000Y-156027381D02*
X99068000Y-155027381D01*
X99163238Y-155170238D01*
X99258476Y-155265476D01*
X99353714Y-155313095D01*
X118927571Y-145851762D02*
X118975190Y-145994619D01*
X119022810Y-146042238D01*
X119118048Y-146089857D01*
X119260905Y-146089857D01*
X119356143Y-146042238D01*
X119403762Y-145994619D01*
X119451381Y-145899381D01*
X119451381Y-145518428D01*
X118451381Y-145518428D01*
X118451381Y-145851762D01*
X118499000Y-145947000D01*
X118546619Y-145994619D01*
X118641857Y-146042238D01*
X118737095Y-146042238D01*
X118832333Y-145994619D01*
X118879952Y-145947000D01*
X118927571Y-145851762D01*
X118927571Y-145518428D01*
X119165667Y-146470809D02*
X119165667Y-146947000D01*
X119451381Y-146375571D02*
X118451381Y-146708904D01*
X119451381Y-147042238D01*
X118451381Y-147232714D02*
X118451381Y-147804143D01*
X119451381Y-147518428D02*
X118451381Y-147518428D01*
X118451381Y-147994619D02*
X118451381Y-148566048D01*
X119451381Y-148280333D02*
X118451381Y-148280333D01*
X119451381Y-149423191D02*
X119451381Y-148851762D01*
X119451381Y-149137476D02*
X118451381Y-149137476D01*
X118594238Y-149042238D01*
X118689476Y-148947000D01*
X118737095Y-148851762D01*
X103290666Y-148534381D02*
X103624000Y-148058190D01*
X103862095Y-148534381D02*
X103862095Y-147534381D01*
X103481142Y-147534381D01*
X103385904Y-147582000D01*
X103338285Y-147629619D01*
X103290666Y-147724857D01*
X103290666Y-147867714D01*
X103338285Y-147962952D01*
X103385904Y-148010571D01*
X103481142Y-148058190D01*
X103862095Y-148058190D01*
X102338285Y-148534381D02*
X102909714Y-148534381D01*
X102624000Y-148534381D02*
X102624000Y-147534381D01*
X102719238Y-147677238D01*
X102814476Y-147772476D01*
X102909714Y-147820095D01*
X107608666Y-156080381D02*
X107942000Y-155604190D01*
X108180095Y-156080381D02*
X108180095Y-155080381D01*
X107799142Y-155080381D01*
X107703904Y-155128000D01*
X107656285Y-155175619D01*
X107608666Y-155270857D01*
X107608666Y-155413714D01*
X107656285Y-155508952D01*
X107703904Y-155556571D01*
X107799142Y-155604190D01*
X108180095Y-155604190D01*
X107227714Y-155175619D02*
X107180095Y-155128000D01*
X107084857Y-155080381D01*
X106846761Y-155080381D01*
X106751523Y-155128000D01*
X106703904Y-155175619D01*
X106656285Y-155270857D01*
X106656285Y-155366095D01*
X106703904Y-155508952D01*
X107275333Y-156080381D01*
X106656285Y-156080381D01*
X70376381Y-163663334D02*
X69900190Y-163330000D01*
X70376381Y-163091905D02*
X69376381Y-163091905D01*
X69376381Y-163472858D01*
X69424000Y-163568096D01*
X69471619Y-163615715D01*
X69566857Y-163663334D01*
X69709714Y-163663334D01*
X69804952Y-163615715D01*
X69852571Y-163568096D01*
X69900190Y-163472858D01*
X69900190Y-163091905D01*
X69376381Y-164520477D02*
X69376381Y-164330000D01*
X69424000Y-164234762D01*
X69471619Y-164187143D01*
X69614476Y-164091905D01*
X69804952Y-164044286D01*
X70185905Y-164044286D01*
X70281143Y-164091905D01*
X70328762Y-164139524D01*
X70376381Y-164234762D01*
X70376381Y-164425239D01*
X70328762Y-164520477D01*
X70281143Y-164568096D01*
X70185905Y-164615715D01*
X69947810Y-164615715D01*
X69852571Y-164568096D01*
X69804952Y-164520477D01*
X69757333Y-164425239D01*
X69757333Y-164234762D01*
X69804952Y-164139524D01*
X69852571Y-164091905D01*
X69947810Y-164044286D01*
X91511381Y-168997334D02*
X91035190Y-168664000D01*
X91511381Y-168425905D02*
X90511381Y-168425905D01*
X90511381Y-168806858D01*
X90559000Y-168902096D01*
X90606619Y-168949715D01*
X90701857Y-168997334D01*
X90844714Y-168997334D01*
X90939952Y-168949715D01*
X90987571Y-168902096D01*
X91035190Y-168806858D01*
X91035190Y-168425905D01*
X91511381Y-169473524D02*
X91511381Y-169664000D01*
X91463762Y-169759239D01*
X91416143Y-169806858D01*
X91273286Y-169902096D01*
X91082810Y-169949715D01*
X90701857Y-169949715D01*
X90606619Y-169902096D01*
X90559000Y-169854477D01*
X90511381Y-169759239D01*
X90511381Y-169568762D01*
X90559000Y-169473524D01*
X90606619Y-169425905D01*
X90701857Y-169378286D01*
X90939952Y-169378286D01*
X91035190Y-169425905D01*
X91082810Y-169473524D01*
X91130429Y-169568762D01*
X91130429Y-169759239D01*
X91082810Y-169854477D01*
X91035190Y-169902096D01*
X90939952Y-169949715D01*
X93416381Y-169029143D02*
X92940190Y-168695809D01*
X93416381Y-168457714D02*
X92416381Y-168457714D01*
X92416381Y-168838667D01*
X92464000Y-168933905D01*
X92511619Y-168981524D01*
X92606857Y-169029143D01*
X92749714Y-169029143D01*
X92844952Y-168981524D01*
X92892571Y-168933905D01*
X92940190Y-168838667D01*
X92940190Y-168457714D01*
X93416381Y-169981524D02*
X93416381Y-169410095D01*
X93416381Y-169695809D02*
X92416381Y-169695809D01*
X92559238Y-169600571D01*
X92654476Y-169505333D01*
X92702095Y-169410095D01*
X92416381Y-170600571D02*
X92416381Y-170695810D01*
X92464000Y-170791048D01*
X92511619Y-170838667D01*
X92606857Y-170886286D01*
X92797333Y-170933905D01*
X93035429Y-170933905D01*
X93225905Y-170886286D01*
X93321143Y-170838667D01*
X93368762Y-170791048D01*
X93416381Y-170695810D01*
X93416381Y-170600571D01*
X93368762Y-170505333D01*
X93321143Y-170457714D01*
X93225905Y-170410095D01*
X93035429Y-170362476D01*
X92797333Y-170362476D01*
X92606857Y-170410095D01*
X92511619Y-170457714D01*
X92464000Y-170505333D01*
X92416381Y-170600571D01*
X97480381Y-169029143D02*
X97004190Y-168695809D01*
X97480381Y-168457714D02*
X96480381Y-168457714D01*
X96480381Y-168838667D01*
X96528000Y-168933905D01*
X96575619Y-168981524D01*
X96670857Y-169029143D01*
X96813714Y-169029143D01*
X96908952Y-168981524D01*
X96956571Y-168933905D01*
X97004190Y-168838667D01*
X97004190Y-168457714D01*
X97480381Y-169981524D02*
X97480381Y-169410095D01*
X97480381Y-169695809D02*
X96480381Y-169695809D01*
X96623238Y-169600571D01*
X96718476Y-169505333D01*
X96766095Y-169410095D01*
X97480381Y-170933905D02*
X97480381Y-170362476D01*
X97480381Y-170648190D02*
X96480381Y-170648190D01*
X96623238Y-170552952D01*
X96718476Y-170457714D01*
X96766095Y-170362476D01*
X95067381Y-169029143D02*
X94591190Y-168695809D01*
X95067381Y-168457714D02*
X94067381Y-168457714D01*
X94067381Y-168838667D01*
X94115000Y-168933905D01*
X94162619Y-168981524D01*
X94257857Y-169029143D01*
X94400714Y-169029143D01*
X94495952Y-168981524D01*
X94543571Y-168933905D01*
X94591190Y-168838667D01*
X94591190Y-168457714D01*
X95067381Y-169981524D02*
X95067381Y-169410095D01*
X95067381Y-169695809D02*
X94067381Y-169695809D01*
X94210238Y-169600571D01*
X94305476Y-169505333D01*
X94353095Y-169410095D01*
X94162619Y-170362476D02*
X94115000Y-170410095D01*
X94067381Y-170505333D01*
X94067381Y-170743429D01*
X94115000Y-170838667D01*
X94162619Y-170886286D01*
X94257857Y-170933905D01*
X94353095Y-170933905D01*
X94495952Y-170886286D01*
X95067381Y-170314857D01*
X95067381Y-170933905D01*
X89352381Y-169029143D02*
X88876190Y-168695809D01*
X89352381Y-168457714D02*
X88352381Y-168457714D01*
X88352381Y-168838667D01*
X88400000Y-168933905D01*
X88447619Y-168981524D01*
X88542857Y-169029143D01*
X88685714Y-169029143D01*
X88780952Y-168981524D01*
X88828571Y-168933905D01*
X88876190Y-168838667D01*
X88876190Y-168457714D01*
X89352381Y-169981524D02*
X89352381Y-169410095D01*
X89352381Y-169695809D02*
X88352381Y-169695809D01*
X88495238Y-169600571D01*
X88590476Y-169505333D01*
X88638095Y-169410095D01*
X88352381Y-170314857D02*
X88352381Y-170933905D01*
X88733333Y-170600571D01*
X88733333Y-170743429D01*
X88780952Y-170838667D01*
X88828571Y-170886286D01*
X88923810Y-170933905D01*
X89161905Y-170933905D01*
X89257143Y-170886286D01*
X89304762Y-170838667D01*
X89352381Y-170743429D01*
X89352381Y-170457714D01*
X89304762Y-170362476D01*
X89257143Y-170314857D01*
X87574381Y-169029143D02*
X87098190Y-168695809D01*
X87574381Y-168457714D02*
X86574381Y-168457714D01*
X86574381Y-168838667D01*
X86622000Y-168933905D01*
X86669619Y-168981524D01*
X86764857Y-169029143D01*
X86907714Y-169029143D01*
X87002952Y-168981524D01*
X87050571Y-168933905D01*
X87098190Y-168838667D01*
X87098190Y-168457714D01*
X87574381Y-169981524D02*
X87574381Y-169410095D01*
X87574381Y-169695809D02*
X86574381Y-169695809D01*
X86717238Y-169600571D01*
X86812476Y-169505333D01*
X86860095Y-169410095D01*
X86907714Y-170838667D02*
X87574381Y-170838667D01*
X86526762Y-170600571D02*
X87241048Y-170362476D01*
X87241048Y-170981524D01*
X83764381Y-172712143D02*
X83288190Y-172378809D01*
X83764381Y-172140714D02*
X82764381Y-172140714D01*
X82764381Y-172521667D01*
X82812000Y-172616905D01*
X82859619Y-172664524D01*
X82954857Y-172712143D01*
X83097714Y-172712143D01*
X83192952Y-172664524D01*
X83240571Y-172616905D01*
X83288190Y-172521667D01*
X83288190Y-172140714D01*
X83764381Y-173664524D02*
X83764381Y-173093095D01*
X83764381Y-173378809D02*
X82764381Y-173378809D01*
X82907238Y-173283571D01*
X83002476Y-173188333D01*
X83050095Y-173093095D01*
X82764381Y-174569286D02*
X82764381Y-174093095D01*
X83240571Y-174045476D01*
X83192952Y-174093095D01*
X83145333Y-174188333D01*
X83145333Y-174426429D01*
X83192952Y-174521667D01*
X83240571Y-174569286D01*
X83335810Y-174616905D01*
X83573905Y-174616905D01*
X83669143Y-174569286D01*
X83716762Y-174521667D01*
X83764381Y-174426429D01*
X83764381Y-174188333D01*
X83716762Y-174093095D01*
X83669143Y-174045476D01*
X105227381Y-146169143D02*
X104751190Y-145835809D01*
X105227381Y-145597714D02*
X104227381Y-145597714D01*
X104227381Y-145978667D01*
X104275000Y-146073905D01*
X104322619Y-146121524D01*
X104417857Y-146169143D01*
X104560714Y-146169143D01*
X104655952Y-146121524D01*
X104703571Y-146073905D01*
X104751190Y-145978667D01*
X104751190Y-145597714D01*
X105227381Y-147121524D02*
X105227381Y-146550095D01*
X105227381Y-146835809D02*
X104227381Y-146835809D01*
X104370238Y-146740571D01*
X104465476Y-146645333D01*
X104513095Y-146550095D01*
X104227381Y-147978667D02*
X104227381Y-147788190D01*
X104275000Y-147692952D01*
X104322619Y-147645333D01*
X104465476Y-147550095D01*
X104655952Y-147502476D01*
X105036905Y-147502476D01*
X105132143Y-147550095D01*
X105179762Y-147597714D01*
X105227381Y-147692952D01*
X105227381Y-147883429D01*
X105179762Y-147978667D01*
X105132143Y-148026286D01*
X105036905Y-148073905D01*
X104798810Y-148073905D01*
X104703571Y-148026286D01*
X104655952Y-147978667D01*
X104608333Y-147883429D01*
X104608333Y-147692952D01*
X104655952Y-147597714D01*
X104703571Y-147550095D01*
X104798810Y-147502476D01*
X110434381Y-146169143D02*
X109958190Y-145835809D01*
X110434381Y-145597714D02*
X109434381Y-145597714D01*
X109434381Y-145978667D01*
X109482000Y-146073905D01*
X109529619Y-146121524D01*
X109624857Y-146169143D01*
X109767714Y-146169143D01*
X109862952Y-146121524D01*
X109910571Y-146073905D01*
X109958190Y-145978667D01*
X109958190Y-145597714D01*
X110434381Y-147121524D02*
X110434381Y-146550095D01*
X110434381Y-146835809D02*
X109434381Y-146835809D01*
X109577238Y-146740571D01*
X109672476Y-146645333D01*
X109720095Y-146550095D01*
X109434381Y-147454857D02*
X109434381Y-148121524D01*
X110434381Y-147692952D01*
X68984571Y-166732381D02*
X69317905Y-166256190D01*
X69556000Y-166732381D02*
X69556000Y-165732381D01*
X69175047Y-165732381D01*
X69079809Y-165780000D01*
X69032190Y-165827619D01*
X68984571Y-165922857D01*
X68984571Y-166065714D01*
X69032190Y-166160952D01*
X69079809Y-166208571D01*
X69175047Y-166256190D01*
X69556000Y-166256190D01*
X68556000Y-166208571D02*
X68222666Y-166208571D01*
X68079809Y-166732381D02*
X68556000Y-166732381D01*
X68556000Y-165732381D01*
X68079809Y-165732381D01*
X67698857Y-166684762D02*
X67556000Y-166732381D01*
X67317904Y-166732381D01*
X67222666Y-166684762D01*
X67175047Y-166637143D01*
X67127428Y-166541905D01*
X67127428Y-166446667D01*
X67175047Y-166351429D01*
X67222666Y-166303810D01*
X67317904Y-166256190D01*
X67508381Y-166208571D01*
X67603619Y-166160952D01*
X67651238Y-166113333D01*
X67698857Y-166018095D01*
X67698857Y-165922857D01*
X67651238Y-165827619D01*
X67603619Y-165780000D01*
X67508381Y-165732381D01*
X67270285Y-165732381D01*
X67127428Y-165780000D01*
X66698857Y-166208571D02*
X66365523Y-166208571D01*
X66222666Y-166732381D02*
X66698857Y-166732381D01*
X66698857Y-165732381D01*
X66222666Y-165732381D01*
X65936952Y-165732381D02*
X65365523Y-165732381D01*
X65651238Y-166732381D02*
X65651238Y-165732381D01*
X64508380Y-166732381D02*
X65079809Y-166732381D01*
X64794095Y-166732381D02*
X64794095Y-165732381D01*
X64889333Y-165875238D01*
X64984571Y-165970476D01*
X65079809Y-166018095D01*
X97408905Y-149566381D02*
X97408905Y-150375905D01*
X97361286Y-150471143D01*
X97313667Y-150518762D01*
X97218429Y-150566381D01*
X97027952Y-150566381D01*
X96932714Y-150518762D01*
X96885095Y-150471143D01*
X96837476Y-150375905D01*
X96837476Y-149566381D01*
X95837476Y-150566381D02*
X96408905Y-150566381D01*
X96123191Y-150566381D02*
X96123191Y-149566381D01*
X96218429Y-149709238D01*
X96313667Y-149804476D01*
X96408905Y-149852095D01*
X108203905Y-148042381D02*
X108203905Y-148851905D01*
X108156286Y-148947143D01*
X108108667Y-148994762D01*
X108013429Y-149042381D01*
X107822952Y-149042381D01*
X107727714Y-148994762D01*
X107680095Y-148947143D01*
X107632476Y-148851905D01*
X107632476Y-148042381D01*
X107203905Y-148137619D02*
X107156286Y-148090000D01*
X107061048Y-148042381D01*
X106822952Y-148042381D01*
X106727714Y-148090000D01*
X106680095Y-148137619D01*
X106632476Y-148232857D01*
X106632476Y-148328095D01*
X106680095Y-148470952D01*
X107251524Y-149042381D01*
X106632476Y-149042381D01*
X69556381Y-144018095D02*
X70365905Y-144018095D01*
X70461143Y-144065714D01*
X70508762Y-144113333D01*
X70556381Y-144208571D01*
X70556381Y-144399048D01*
X70508762Y-144494286D01*
X70461143Y-144541905D01*
X70365905Y-144589524D01*
X69556381Y-144589524D01*
X69556381Y-145541905D02*
X69556381Y-145065714D01*
X70032571Y-145018095D01*
X69984952Y-145065714D01*
X69937333Y-145160952D01*
X69937333Y-145399048D01*
X69984952Y-145494286D01*
X70032571Y-145541905D01*
X70127810Y-145589524D01*
X70365905Y-145589524D01*
X70461143Y-145541905D01*
X70508762Y-145494286D01*
X70556381Y-145399048D01*
X70556381Y-145160952D01*
X70508762Y-145065714D01*
X70461143Y-145018095D01*
M02*
