M48
;DRILL file {KiCad 4.0.5} date 03/21/17 19:18:03
;FORMAT={-:-/ absolute / inch / decimal}
FMAT,2
INCH,TZ
T1C0.016
T2C0.020
T3C0.022
T4C0.028
T5C0.030
T6C0.032
T7C0.039
T8C0.114
%
G90
G05
M72
T1
X2.81Y-6.2
X3.025Y-6.14
X3.085Y-6.105
X3.165Y-6.265
X3.17Y-6.14
X3.18Y-6.64
X3.26Y-6.025
X3.26Y-6.33
X3.305Y-6.65
X3.33Y-6.67
X3.34Y-6.925
X3.38Y-6.575
X3.3894Y-6.1044
X3.39Y-6.71
X3.4Y-6.355
X3.415Y-6.04
X3.42Y-6.925
X3.435Y-5.925
X3.455Y-6.545
X3.4555Y-6.1405
X3.5Y-6.925
X3.52Y-6.135
X3.57Y-6.965
X3.58Y-6.25
X3.58Y-6.925
X3.605Y-6.58
X3.65Y-6.31
X3.66Y-6.925
X3.675Y-6.33
X3.68Y-6.135
X3.71Y-6.37
X3.74Y-6.925
X3.755Y-6.205
X3.76Y-6.65
X3.78Y-6.87
X3.79Y-6.215
X3.805Y-5.705
X3.82Y-6.61
X3.825Y-6.065
X3.835Y-6.295
X3.875Y-6.8
X3.88Y-6.47
X4.04Y-5.88
X4.07Y-5.95
X4.14Y-6.115
X4.155Y-6.31
X4.1978Y-5.9372
X4.22Y-6.22
X4.2622Y-5.9372
X4.385Y-5.865
X4.41Y-6.18
T4
X4.46Y-5.99
X4.46Y-6.0687
T5
X2.Y-7.15
X2.1Y-7.15
X2.2Y-7.15
X2.3Y-7.15
X2.4Y-7.15
X2.54Y-5.78
X2.54Y-5.88
X2.54Y-5.98
X2.54Y-6.08
X2.64Y-5.78
X2.64Y-5.88
X2.64Y-5.98
X2.64Y-6.08
X3.45Y-5.8
X3.55Y-5.8
X3.65Y-5.8
X3.75Y-5.8
T6
X2.92Y-7.05
X2.92Y-7.25
X3.42Y-7.05
X3.42Y-7.25
X3.71Y-7.05
X3.71Y-7.25
X4.21Y-7.05
X4.21Y-7.25
X4.3925Y-6.5339
X4.3966Y-5.505
X4.495Y-5.505
X4.5339Y-6.3925
X4.5934Y-5.505
X4.7461Y-6.8875
X4.7625Y-6.3661
X4.7625Y-7.1261
X4.8875Y-6.7461
X4.9039Y-6.5075
X4.9039Y-7.2675
X5.1161Y-6.0125
X5.1161Y-6.7725
X5.1325Y-6.5339
X5.2575Y-6.1539
X5.2575Y-6.9139
X5.2739Y-6.3925
X5.4861Y-6.8875
X5.6275Y-6.7461
T7
X3.21Y-5.69
X3.21Y-5.79
X3.21Y-5.89
X3.31Y-5.69
X3.31Y-5.79
X3.31Y-5.89
T8
X1.5354Y-6.5354
X1.5354Y-7.4016
X2.3228Y-5.5512
X5.748Y-5.5512
X5.748Y-7.4016
T2
X3.4622Y-5.5141G85X3.4622Y-5.5396
G05
X3.7378Y-5.5141G85X3.7378Y-5.5396
G05
T3
X3.5075Y-5.6331G85X3.4957Y-5.6331
G05
X3.7043Y-5.6331G85X3.6925Y-5.6331
G05
T0
M30
