G04 #@! TF.FileFunction,Soldermask,Bot*
%FSLAX46Y46*%
G04 Gerber Fmt 4.6, Leading zero omitted, Abs format (unit mm)*
G04 Created by KiCad (PCBNEW 4.0.5) date 03/21/17 19:18:11*
%MOMM*%
%LPD*%
G01*
G04 APERTURE LIST*
%ADD10C,0.100000*%
%ADD11R,1.700000X1.700000*%
%ADD12O,1.700000X1.700000*%
%ADD13C,1.727200*%
%ADD14O,3.048000X1.727200*%
%ADD15R,1.200000X0.750000*%
%ADD16R,1.700000X1.200000*%
%ADD17O,1.700000X1.200000*%
%ADD18O,1.250000X0.950000*%
%ADD19O,1.000000X1.550000*%
%ADD20R,1.200000X0.900000*%
%ADD21R,0.900000X1.200000*%
%ADD22R,1.000000X0.900000*%
%ADD23R,1.560000X0.650000*%
%ADD24R,1.450000X0.450000*%
%ADD25R,1.524000X1.524000*%
%ADD26C,1.524000*%
%ADD27R,1.397000X1.397000*%
%ADD28C,1.397000*%
G04 APERTURE END LIST*
D10*
D11*
X84074000Y-144526000D03*
D12*
X81534000Y-144526000D03*
X84074000Y-147066000D03*
X81534000Y-147066000D03*
X84074000Y-149606000D03*
X81534000Y-149606000D03*
D13*
X123675206Y-170883104D02*
X124609152Y-171817050D01*
X120083104Y-174475206D02*
X121017050Y-175409152D01*
X114694950Y-161902848D02*
X115628896Y-162836794D01*
X111102848Y-165494950D02*
X112036794Y-166428896D01*
X129481104Y-172488794D02*
X130415050Y-171554848D01*
X133073206Y-176080896D02*
X134007152Y-175146950D01*
X120500848Y-181469050D02*
X121434794Y-180535104D01*
X124092950Y-185061152D02*
X125026896Y-184127206D01*
X130832794Y-166428896D02*
X129898848Y-165494950D01*
X134424896Y-162836794D02*
X133490950Y-161902848D01*
X139813050Y-175409152D02*
X138879104Y-174475206D01*
X143405152Y-171817050D02*
X142471206Y-170883104D01*
X125026896Y-164823206D02*
X124092950Y-165757152D01*
X121434794Y-161231104D02*
X120500848Y-162165050D01*
X134007152Y-155842950D02*
X133073206Y-156776896D01*
X130415050Y-152250848D02*
X129481104Y-153184794D01*
D14*
X94234000Y-184150000D03*
X94234000Y-179070000D03*
X106934000Y-184150000D03*
X106934000Y-179070000D03*
X74168000Y-184150000D03*
X74168000Y-179070000D03*
X86868000Y-184150000D03*
X86868000Y-179070000D03*
D15*
X98618000Y-154051000D03*
X100518000Y-154051000D03*
D16*
X113284000Y-152146000D03*
D17*
X113284000Y-154146000D03*
D18*
X93940000Y-143082000D03*
X88940000Y-143082000D03*
D19*
X94940000Y-140382000D03*
X87940000Y-140382000D03*
D20*
X98976000Y-148336000D03*
X101176000Y-148336000D03*
X106342000Y-154178000D03*
X108542000Y-154178000D03*
D21*
X71374000Y-162730000D03*
X71374000Y-164930000D03*
X90932000Y-174455000D03*
X90932000Y-172255000D03*
X92964000Y-174455000D03*
X92964000Y-172255000D03*
X97028000Y-174455000D03*
X97028000Y-172255000D03*
X94996000Y-174455000D03*
X94996000Y-172255000D03*
X88900000Y-174455000D03*
X88900000Y-172255000D03*
X86868000Y-174455000D03*
X86868000Y-172255000D03*
X84836000Y-174455000D03*
X84836000Y-172255000D03*
X106426000Y-147912000D03*
X106426000Y-145712000D03*
X108458000Y-147912000D03*
X108458000Y-145712000D03*
D22*
X65006000Y-164630000D03*
X65006000Y-163030000D03*
X69106000Y-164630000D03*
X69106000Y-163030000D03*
D23*
X101426000Y-150180000D03*
X101426000Y-151130000D03*
X101426000Y-152080000D03*
X98726000Y-152080000D03*
X98726000Y-150180000D03*
D24*
X105242000Y-152105000D03*
X105242000Y-151455000D03*
X105242000Y-150805000D03*
X105242000Y-150155000D03*
X109642000Y-150155000D03*
X109642000Y-150805000D03*
X109642000Y-151455000D03*
X109642000Y-152105000D03*
D25*
X67056000Y-146812000D03*
D26*
X64516000Y-146812000D03*
X67056000Y-149352000D03*
X64516000Y-149352000D03*
X67056000Y-151892000D03*
X64516000Y-151892000D03*
X67056000Y-154432000D03*
X64516000Y-154432000D03*
X50800000Y-181610000D03*
X53340000Y-181610000D03*
X55880000Y-181610000D03*
X58420000Y-181610000D03*
X60960000Y-181610000D03*
X87630000Y-147320000D03*
X90170000Y-147320000D03*
X92710000Y-147320000D03*
X95250000Y-147320000D03*
D27*
X116673000Y-139827000D03*
D28*
X114173000Y-139827000D03*
X111673000Y-139827000D03*
M02*
